:SAMPLES-PER-SECOND 30
:FULLY-SPECIFIED
:DEGREES
1
root  80.4971 40.3458 29.0087 165.627 -86.383 -165.625
RightUpLeg  1.24651 -5.7792 -1.62333
RightLeg  0.982554 -2.99247 3.89017
RightFoot  -1.98467 0.221289 -2.87005
RightToes  5.82063e-011 0 -3.6325e-017
Spine  -8.9518 -18.351 18.5381
Spine1  1.42842 -15.544 -26.676
HEad  6.54205 1.55081 -6.7033
LeftShoulder1  12.9103 -4.23581 -108.521
LeftArm  55.5 -44.3644 -53.5227
LeftForeArm  15.5121 -31.3871 -6.01392
LeftHand  -0.244104 0.0205437 5.32207
RightShoulder  13.5812 44.4097 21.1192
RightArm  -33.7378 -6.4585 10.8012
RightForeArm  16.5382 -5.16956 -4.06516
RightHand  -1.06974 3.23929 -14.5661
LeftUpLeg  1.32004 5.46761 2.9822
LeftLeg  2.25224 15.8678 -3.59239
LeftFoot  -3.87395 -0.0906932 1.82928
LeftToes  1.2005e-010 6.1915e-012 3.32694e-011
2
root  80.478 40.3458 29.0027 166.143 -86.5565 -166.149
RightUpLeg  1.28113 -5.86532 -1.70686
RightLeg  1.03559 -3.07918 3.9011
RightFoot  -2.03728 0.225659 -2.9411
RightToes  5.82063e-011 0 -3.6325e-017
Spine  -8.82184 -18.257 18.4039
Spine1  1.13885 -15.5724 -26.0634
HEad  -7.3605 -10.8911 -20.9369
LeftShoulder1  12.7214 -4.1203 -108.523
LeftArm  55.3024 -44.3112 -54.139
LeftForeArm  13.6798 -31.8178 -6.22652
LeftHand  -0.244104 0.0205437 5.32207
RightShoulder  13.045 44.7678 19.7206
RightArm  -33.9663 -7.53251 11.4775
RightForeArm  16.7557 -5.12916 -4.17581
RightHand  -1.06803 3.35025 -14.3668
LeftUpLeg  1.36689 5.45244 2.93354
LeftLeg  2.20553 15.7304 -3.65706
LeftFoot  -3.86558 -0.0935228 1.87328
LeftToes  1.2005e-010 6.1915e-012 3.32694e-011
3
root  80.4522 40.3458 29.0018 167.478 -86.6477 -167.472
RightUpLeg  1.25603 -5.96505 -1.82092
RightLeg  1.16054 -3.06087 3.8998
RightFoot  -2.10939 0.228829 -3.00861
RightToes  5.82063e-011 0 -3.6325e-017
Spine  -8.79579 -18.1928 18.0553
Spine1  1.14713 -15.6017 -25.3082
HEad  -19.2081 -28.8632 -23.6342
LeftShoulder1  12.6477 -4.19167 -107.76
LeftArm  54.1807 -44.1168 -54.7573
LeftForeArm  11.8391 -32.4984 -6.50546
LeftHand  -0.244104 0.0205437 5.32207
RightShoulder  12.4621 45.1921 18.192
RightArm  -34.2222 -8.51085 12.2113
RightForeArm  16.9985 -4.99107 -4.25318
RightHand  -1.06594 3.47088 -14.1525
LeftUpLeg  1.44305 5.45307 2.86714
LeftLeg  2.08346 15.6711 -3.7797
LeftFoot  -3.8442 -0.0993291 1.96357
LeftToes  1.2005e-010 6.1915e-012 3.32694e-011
4
root  80.4096 40.3458 28.9961 168.911 -86.734 -168.771
RightUpLeg  1.14493 -6.04521 -1.91576
RightLeg  1.24275 -3.04986 3.90516
RightFoot  -2.19247 0.227684 -3.02095
RightToes  5.82063e-011 0 -3.6325e-017
Spine  -9.20952 -18.1033 17.6578
Spine1  1.66463 -15.5034 -24.9409
HEad  -26.091 -36.2601 -16.9127
LeftShoulder1  12.6857 -4.38749 -106.634
LeftArm  52.5592 -43.9049 -55.4005
LeftForeArm  10.7185 -33.3067 -6.78099
LeftHand  -0.244104 0.0205437 5.32207
RightShoulder  12.2622 45.1726 17.7721
RightArm  -34.1328 -8.7344 12.2969
RightForeArm  16.9081 -4.85641 -4.17794
RightHand  -1.07091 3.52455 -14.1349
LeftUpLeg  1.44875 5.45978 2.81076
LeftLeg  1.88789 15.6137 -3.93552
LeftFoot  -3.79987 -0.10659 2.07649
LeftToes  1.2005e-010 6.1915e-012 3.32694e-011
5
root  80.3555 40.3458 28.9811 169.636 -86.956 -169.362
RightUpLeg  1.1155 -6.13087 -1.98988
RightLeg  1.24108 -3.18306 3.93525
RightFoot  -2.28938 0.226574 -3.03995
RightToes  5.82063e-011 0 -3.6325e-017
Spine  -9.53955 -17.9959 17.1292
Spine1  2.02964 -15.4502 -24.2386
HEad  -27.7257 -35.8701 -15.8796
LeftShoulder1  12.5949 -4.46237 -105.776
LeftArm  50.8763 -43.6047 -56.0513
LeftForeArm  10.5498 -34.4742 -7.10315
LeftHand  -0.244104 0.0205437 5.32207
RightShoulder  11.9404 45.1474 17.0892
RightArm  -33.9997 -9.17643 12.4312
RightForeArm  16.5948 -4.72587 -4.09448
RightHand  -1.06602 3.44984 -14.1858
LeftUpLeg  1.44434 5.46739 2.78453
LeftLeg  1.73576 15.4085 -4.06428
LeftFoot  -3.76985 -0.110166 2.1321
LeftToes  1.2005e-010 6.1915e-012 3.32694e-011
6
root  80.312 40.3458 28.9663 170.089 -87.2029 -169.744
RightUpLeg  1.13572 -6.21312 -2.05175
RightLeg  1.2506 -3.36418 3.96077
RightFoot  -2.38364 0.22733 -3.09602
RightToes  5.82063e-011 0 -3.6325e-017
Spine  -9.73359 -17.8846 16.7549
Spine1  2.27201 -15.3913 -23.6495
HEad  -29.4565 -36.113 -14.6267
LeftShoulder1  12.4917 -4.52774 -104.924
LeftArm  49.0042 -43.2023 -56.7425
LeftForeArm  11.2017 -35.9097 -7.4609
LeftHand  -0.244104 0.0205437 5.32207
RightShoulder  11.438 45.1278 16.0071
RightArm  -33.8966 -9.7835 12.8559
RightForeArm  16.1979 -4.48185 -3.99224
RightHand  -1.04056 3.24616 -14.1679
LeftUpLeg  1.44328 5.4726 2.77279
LeftLeg  1.68094 15.1529 -4.1497
LeftFoot  -3.7684 -0.108538 2.10678
LeftToes  1.2005e-010 6.1915e-012 3.32694e-011
7
root  80.2782 40.3454 28.9561 171.195 -87.3353 -170.691
RightUpLeg  0.99593 -6.25454 -2.09636
RightLeg  1.31737 -3.46577 3.95522
RightFoot  -2.4666 0.224541 -3.10666
RightToes  5.82063e-011 0 -3.6325e-017
Spine  -10.0459 -17.7343 16.4279
Spine1  2.6411 -15.2872 -23.1166
HEad  -30.4553 -37.0372 -14.1575
LeftShoulder1  12.4894 -4.69709 -103.83
LeftArm  46.9074 -42.8459 -57.636
LeftForeArm  12.2913 -37.4401 -7.83392
LeftHand  -0.244104 0.0205437 5.32207
RightShoulder  10.8274 45.1001 14.6881
RightArm  -33.8951 -10.2333 13.4821
RightForeArm  15.7941 -4.24883 -3.90743
RightHand  -1.01696 3.01838 -14.2137
LeftUpLeg  1.33702 5.47339 2.74435
LeftLeg  1.62924 15.0073 -4.24352
LeftFoot  -3.76337 -0.10939 2.12004
LeftToes  1.2005e-010 6.1915e-012 3.32694e-011
8
root  80.2344 40.3431 28.943 173.283 -87.4242 -172.447
RightUpLeg  0.651922 -6.27196 -2.1448
RightLeg  1.43564 -3.52502 3.93614
RightFoot  -2.60634 0.213344 -3.02211
RightToes  5.82063e-011 0 -3.6325e-017
Spine  -10.5886 -17.5591 16.0285
Spine1  3.01802 -15.19 -22.5215
HEad  -40.1498 -29.7747 -4.58515
LeftShoulder1  12.5599 -4.90795 -102.793
LeftArm  44.5043 -42.655 -58.2278
LeftForeArm  13.6179 -39.273 -8.30464
LeftHand  -0.244104 0.0205437 5.32207
RightShoulder  10.3818 45.0342 13.7443
RightArm  -34.0432 -10.4184 13.9064
RightForeArm  15.4695 -4.23534 -3.92708
RightHand  -1.01702 2.8962 -14.4145
LeftUpLeg  1.08649 5.46157 2.67471
LeftLeg  1.52899 14.9392 -4.3598
LeftFoot  -3.75373 -0.117162 2.24091
LeftToes  1.2005e-010 6.1915e-012 3.32694e-011
9
root  80.1872 40.3367 28.9266 176.6 -87.5556 -175.437
RightUpLeg  0.266972 -6.34339 -2.25916
RightLeg  1.69183 -3.57351 3.92845
RightFoot  -2.89088 0.198159 -2.9455
RightToes  5.82063e-011 0 -3.6325e-017
Spine  -10.8352 -17.4325 15.7747
Spine1  2.83341 -15.1759 -22.0314
HEad  -71.852 -2.06722 28.3437
LeftShoulder1  12.5669 -5.01516 -102.156
LeftArm  41.9413 -42.5186 -58.1674
LeftForeArm  15.2935 -41.7335 -8.9828
LeftHand  -0.244104 0.0205437 5.32207
RightShoulder  10.0668 44.9755 13.0804
RightArm  -34.4107 -10.7195 14.2328
RightForeArm  15.4974 -4.27294 -4.07269
RightHand  -1.02328 2.88515 -14.5199
LeftUpLeg  0.841529 5.41657 2.56023
LeftLeg  1.44191 14.8371 -4.47329
LeftFoot  -3.77635 -0.123417 2.33821
LeftToes  1.2005e-010 6.1915e-012 3.32694e-011
10
root  80.1618 40.3246 28.9158 -178.837 -87.6455 -179.742
RightUpLeg  -0.179661 -6.48398 -2.44173
RightLeg  2.16508 -3.54311 3.92809
RightFoot  -3.27739 0.186848 -2.96403
RightToes  5.82063e-011 0 -3.6325e-017
Spine  -11.0062 -17.3266 15.6928
Spine1  2.58145 -15.1412 -21.8236
HEad  -69.0556 -5.26776 26.0279
LeftShoulder1  12.7117 -5.24707 -101.344
LeftArm  38.8216 -42.4251 -58.0109
LeftForeArm  17.3582 -44.5531 -9.83357
LeftHand  -0.244104 0.0205437 5.32207
RightShoulder  9.89629 45.0157 12.6837
RightArm  -34.8214 -11.2326 14.5112
RightForeArm  15.8393 -4.04865 -4.20104
RightHand  -1.02899 2.95095 -14.491
LeftUpLeg  0.631397 5.3596 2.42514
LeftLeg  1.38042 14.7375 -4.60548
LeftFoot  -3.82555 -0.120735 2.29648
LeftToes  1.2005e-010 6.1915e-012 3.32694e-011
11
root  80.1715 40.3099 28.9186 -176.495 -87.5776 177.863
RightUpLeg  -0.379789 -6.61311 -2.583
RightLeg  2.67324 -3.36672 3.933
RightFoot  -3.59144 0.177848 -2.98255
RightToes  5.82063e-011 0 -3.6325e-017
Spine  -10.3786 -17.2597 15.327
Spine1  2.24024 -15.1341 -21.1565
HEad  -69.2468 -5.12471 26.2864
LeftShoulder1  12.907 -5.6025 -100.041
LeftArm  35.399 -42.1884 -58.7684
LeftForeArm  20.3648 -48.0128 -10.9637
LeftHand  -0.244104 0.0205437 5.32207
RightShoulder  9.55952 44.9979 11.9484
RightArm  -35.2951 -11.8937 15.172
RightForeArm  15.2996 -3.35779 -4.14409
RightHand  -1.08929 3.14564 -14.9801
LeftUpLeg  0.68516 5.37589 2.38619
LeftLeg  1.39287 14.711 -4.68092
LeftFoot  -3.92739 -0.111525 2.15323
LeftToes  1.2005e-010 6.1915e-012 3.32694e-011
12
root  80.1643 40.3 28.9179 -175.372 -87.5543 176.766
RightUpLeg  -0.562295 -6.69996 -2.66485
RightLeg  3.02855 -3.24112 3.95618
RightFoot  -3.80271 0.164948 -2.89252
RightToes  5.82063e-011 0 -3.6325e-017
Spine  -10.3814 -17.4871 14.7338
Spine1  2.95862 -15.3132 -20.6581
HEad  -69.7482 -4.03431 27.1521
LeftShoulder1  13.6159 -6.49615 -97.9204
LeftArm  31.8315 -42.5748 -59.5444
LeftForeArm  22.9441 -50.6964 -11.9324
LeftHand  -0.244104 0.0205437 5.32207
RightShoulder  9.60038 44.9373 12.0678
RightArm  -36.1314 -11.7253 16.2361
RightForeArm  12.7837 -2.45973 -3.937
RightHand  -1.28706 3.65741 -16.6438
LeftUpLeg  0.722041 5.41784 2.39609
LeftLeg  1.31195 14.6651 -4.7835
LeftFoot  -4.00837 -0.104965 2.05121
LeftToes  1.2005e-010 6.1915e-012 3.32694e-011
13
root  80.14 40.2933 28.914 -173.518 -87.5652 174.822
RightUpLeg  -0.567148 -6.81689 -2.80148
RightLeg  3.3624 -3.09575 3.97715
RightFoot  -4.05203 0.151188 -2.80287
RightToes  5.82063e-011 0 -3.6325e-017
Spine  -11.2489 -18.0392 13.6344
Spine1  5.8017 -15.5246 -20.5576
HEad  -71.063 -1.5098 28.8549
LeftShoulder1  14.9087 -8.19375 -94.3664
LeftArm  28.9377 -43.3868 -61.1881
LeftForeArm  24.586 -51.8306 -12.3486
LeftHand  -0.244104 0.0205437 5.32207
RightShoulder  9.83498 44.6942 12.7066
RightArm  -37.5188 -10.3586 18.1598
RightForeArm  8.94534 -1.41993 -3.67042
RightHand  -1.6274 4.64551 -18.9377
LeftUpLeg  0.962405 5.43405 2.36747
LeftLeg  1.11812 14.6135 -4.90365
LeftFoot  -4.05156 -0.0969087 1.92593
LeftToes  1.2005e-010 6.1915e-012 3.32694e-011
14
root  80.1322 40.2828 28.9149 -170.653 -87.4074 171.579
RightUpLeg  -0.413272 -6.98319 -3.03466
RightLeg  3.94584 -2.75928 3.942
RightFoot  -4.45366 0.142327 -2.86553
RightToes  5.82063e-011 0 -3.6325e-017
Spine  -12.5367 -18.5754 11.7208
Spine1  10.9744 -15.3576 -20.5264
HEad  -73.7775 1.9505 30.6587
LeftShoulder1  16.4112 -10.6329 -89.2311
LeftArm  28.4045 -43.9585 -65.1111
LeftForeArm  25.3148 -51.8463 -11.8684
LeftHand  -0.244104 0.0205437 5.32207
RightShoulder  9.89923 44.0582 13.1719
RightArm  -38.7416 -8.00008 20.958
RightForeArm  6.22466 -0.297902 -3.33054
RightHand  -1.94155 5.69334 -20.4453
LeftUpLeg  1.52139 5.43846 2.27114
LeftLeg  0.890336 14.7114 -5.03444
LeftFoot  -4.07917 -0.0873058 1.77661
LeftToes  1.2005e-010 6.1915e-012 3.32694e-011
15
root  80.1266 40.2641 28.9088 -167.607 -87.0375 168.354
RightUpLeg  -0.667419 -7.13912 -3.23504
RightLeg  4.84732 -2.29567 3.81665
RightFoot  -4.99407 0.132302 -2.99369
RightToes  5.82063e-011 0 -3.6325e-017
Spine  -14.3396 -18.886 9.74899
Spine1  16.6011 -14.8236 -20.6227
HEad  -76.8774 4.41482 32.1282
LeftShoulder1  17.7314 -13.2431 -83.9567
LeftArm  31.7763 -44.5122 -69.4426
LeftForeArm  40.7357 -55.5915 -20.5853
LeftHand  -0.244104 0.0205437 5.32207
RightShoulder  10.7451 43.3713 15.4515
RightArm  -38.365 -5.39984 23.2349
RightForeArm  6.05216 0.523595 -2.80749
RightHand  -1.98585 5.91581 -20.4848
LeftUpLeg  1.85296 5.43488 2.11396
LeftLeg  0.7043 15.0554 -5.19071
LeftFoot  -4.12884 -0.0859448 1.76048
LeftToes  1.2005e-010 6.1915e-012 3.32694e-011
